<?xml version="1.0" encoding="UTF-8" standalone="no"?>
<!-- Uploaded to: SVG Repo, www.svgrepo.com, Generator: SVG Repo Mixer Tools -->

<svg
   version="1.1"
   id="Layer_1"
   width="800px"
   height="800px"
   viewBox="0 0 32 32"
   enable-background="new 0 0 32 32"
   xml:space="preserve"
   sodipodi:docname="instagram.svg"
   inkscape:version="1.3.2 (091e20e, 2023-11-25)"
   xmlns:inkscape="http://www.inkscape.org/namespaces/inkscape"
   xmlns:sodipodi="http://sodipodi.sourceforge.net/DTD/sodipodi-0.dtd"
   xmlns="http://www.w3.org/2000/svg"
   xmlns:svg="http://www.w3.org/2000/svg"><defs
   id="defs3">
	
	
	
</defs><sodipodi:namedview
   id="namedview3"
   pagecolor="#ffffff"
   bordercolor="#000000"
   borderopacity="0.25"
   inkscape:showpageshadow="2"
   inkscape:pageopacity="0.0"
   inkscape:pagecheckerboard="0"
   inkscape:deskcolor="#d1d1d1"
   inkscape:zoom="0.295"
   inkscape:cx="400"
   inkscape:cy="400"
   inkscape:window-width="1472"
   inkscape:window-height="449"
   inkscape:window-x="59"
   inkscape:window-y="231"
   inkscape:window-maximized="0"
   inkscape:current-layer="Layer_1" />
<path
   fill="#808184"
   d="M 16,-0.035 C 7.158,-0.035 -0.034,7.159 -0.034,16 -0.034,24.841 7.158,32.035 16,32.035 24.842,32.035 32.034,24.841 32.034,16 32.034,7.159 24.842,-0.035 16,-0.035 Z m 0,31 C 7.748,30.965 1.034,24.252 1.034,16 1.034,7.748 7.748,1.035 16,1.035 c 8.252,0 14.966,6.713 14.966,14.965 0,8.252 -6.714,14.965 -14.966,14.965 z"
   id="path1" />
<path
   d="M 16,11.49435 A 4.5677966,4.5056497 0 1 0 20.567796,16 4.5729644,4.5107473 0 0 0 16,11.49435 Z m 0,8.192091 A 3.7372881,3.6864407 0 1 1 19.737288,16 3.741504,3.6905992 0 0 1 16,19.686441 Z M 20.567796,6.1694913 H 11.432203 A 5.4044301,5.3309004 0 0 0 6.0338986,11.49435 v 9.0113 a 5.4044301,5.3309004 0 0 0 5.3983044,5.324859 h 9.135593 a 5.4044301,5.3309004 0 0 0 5.398305,-5.324859 v -9.0113 A 5.4044301,5.3309004 0 0 0 20.567796,6.1694913 Z M 25.135593,20.50565 A 4.5729644,4.5107473 0 0 1 20.567796,25.0113 H 11.432203 A 4.5729644,4.5107473 0 0 1 6.8644071,20.50565 v -9.0113 A 4.5729644,4.5107473 0 0 1 11.432203,6.9887003 h 9.135593 a 4.5729644,4.5107473 0 0 1 4.567797,4.5056497 z m -2.90678,-9.830509 a 0.83050847,0.81920904 0 1 1 -0.830508,-0.819209 0.8314604,0.82014802 0 0 1 0.830508,0.819209 z"
   id="path1-0"
   style="fill:#727272;fill-opacity:1;stroke-width:0.103105" /></svg>
