<?xml version="1.0" encoding="UTF-8" standalone="no"?>
<!-- Uploaded to: SVG Repo, www.svgrepo.com, Generator: SVG Repo Mixer Tools -->

<svg
   version="1.1"
   id="Layer_1"
   width="800px"
   height="800px"
   viewBox="0 0 32 32"
   enable-background="new 0 0 32 32"
   xml:space="preserve"
   sodipodi:docname="podcast.svg"
   inkscape:version="1.3.2 (091e20e, 2023-11-25)"
   xmlns:inkscape="http://www.inkscape.org/namespaces/inkscape"
   xmlns:sodipodi="http://sodipodi.sourceforge.net/DTD/sodipodi-0.dtd"
   xmlns="http://www.w3.org/2000/svg"
   xmlns:svg="http://www.w3.org/2000/svg"><defs
   id="defs3">
	
	
	
</defs><sodipodi:namedview
   id="namedview3"
   pagecolor="#ffffff"
   bordercolor="#000000"
   borderopacity="0.25"
   inkscape:showpageshadow="2"
   inkscape:pageopacity="0.0"
   inkscape:pagecheckerboard="0"
   inkscape:deskcolor="#d1d1d1"
   inkscape:zoom="0.295"
   inkscape:cx="400"
   inkscape:cy="400"
   inkscape:window-width="1472"
   inkscape:window-height="449"
   inkscape:window-x="59"
   inkscape:window-y="231"
   inkscape:window-maximized="0"
   inkscape:current-layer="Layer_1" />
<path
   fill="#808184"
   d="M 16,-0.035 C 7.158,-0.035 -0.034,7.159 -0.034,16 -0.034,24.841 7.158,32.035 16,32.035 24.842,32.035 32.034,24.841 32.034,16 32.034,7.159 24.842,-0.035 16,-0.035 Z m 0,31 C 7.748,30.965 1.034,24.252 1.034,16 1.034,7.748 7.748,1.035 16,1.035 c 8.252,0 14.966,6.713 14.966,14.965 0,8.252 -6.714,14.965 -14.966,14.965 z"
   id="path1" />
<g
   id="g4"
   style="fill:#808184;fill-opacity:1"
   transform="matrix(0.04935487,0,0,0.04935487,3.3898307,3.3898307)">
	<path
   d="m 343,199.5 c 0,-4.143 -3.358,-7.5 -7.5,-7.5 h -152 c -4.142,0 -7.5,3.357 -7.5,7.5 0,4.143 3.358,7.5 7.5,7.5 h 152 c 4.142,0 7.5,-3.357 7.5,-7.5 z"
   id="path1-8"
   style="fill:#808184;fill-opacity:1" />
	<path
   d="M 255.5,399 C 316.981,399 367,348.981 367,287.5 v -176 C 367,50.019 316.981,0 255.5,0 194.019,0 144,50.019 144,111.5 v 176 C 144,348.981 194.019,399 255.5,399 Z M 159,111.5 C 159,58.29 202.29,15 255.5,15 308.71,15 352,58.29 352,111.5 v 176 C 352,340.71 308.71,384 255.5,384 202.29,384 159,340.71 159,287.5 Z"
   id="path2"
   style="fill:#808184;fill-opacity:1" />
	<path
   d="m 407.5,192 h -8 c -8.547,0 -15.5,6.953 -15.5,15.5 v 80 c 0,33.896 -13.081,65.878 -36.834,90.054 -23.723,24.145 -55.404,37.79 -89.209,38.423 -33.707,0.625 -65.942,-12.421 -90.735,-36.753 C 141.661,354.137 127,319.405 127,283.936 V 207.5 c 0,-8.547 -6.953,-15.5 -15.5,-15.5 h -8 c -4.142,0 -7.5,3.357 -7.5,7.5 0,4.143 3.358,7.5 7.5,7.5 h 8 c 0.276,0 0.5,0.225 0.5,0.5 v 76.436 c 0,39.471 16.298,78.104 44.715,105.994 25.177,24.709 57.27,38.995 91.285,40.854 V 496 h -80.5 c -4.142,0 -7.5,3.357 -7.5,7.5 0,4.143 3.358,7.5 7.5,7.5 h 176 c 4.142,0 7.5,-3.357 7.5,-7.5 0,-4.143 -3.358,-7.5 -7.5,-7.5 H 263 v -65.202 c 35.959,-1.847 69.492,-16.907 94.866,-42.732 C 384.392,361.068 399,325.354 399,287.5 v -80 c 0,-0.275 0.224,-0.5 0.5,-0.5 h 8 c 4.142,0 7.5,-3.357 7.5,-7.5 0,-4.143 -3.358,-7.5 -7.5,-7.5 z"
   id="path3"
   style="fill:#808184;fill-opacity:1" />
	<path
   d="m 255.5,47 c 35.565,0 64.5,28.935 64.5,64.5 0,4.143 3.358,7.5 7.5,7.5 4.142,0 7.5,-3.357 7.5,-7.5 C 335,67.663 299.336,32 255.5,32 c -4.142,0 -7.5,3.357 -7.5,7.5 0,4.143 3.358,7.5 7.5,7.5 z"
   id="path4"
   style="fill:#808184;fill-opacity:1" />
</g></svg>
